<?xml version="1.0" encoding="utf-8"?>
<!-- Generator: Adobe Illustrator 26.2.1, SVG Export Plug-In . SVG Version: 6.00 Build 0)  -->
<svg version="1.1" id="Warstwa_1" xmlns="http://www.w3.org/2000/svg" xmlns:xlink="http://www.w3.org/1999/xlink" x="0px" y="0px"
	 viewBox="0 0 1037 1280" style="enable-background:new 0 0 1037 1280;" xml:space="preserve">
<circle cx="518.5" cy="165.3" r="143.2"/>
<rect x="503.5" y="304.6" width="30" height="554.5"/>
<rect x="220.2" y="1024.7" transform="matrix(0.4156 -0.9095 0.9095 0.4156 -693.2249 1000.3776)" width="423.4" height="30"/>
<rect x="590.2" y="827.9" transform="matrix(0.9095 -0.4156 0.4156 0.9095 -377.3461 345.5728)" width="30" height="423.4"/>
<polygon points="650,520.8 622.6,529.8 503.5,332.6 530.9,323.5 "/>
<rect x="650.4" y="520.4" transform="matrix(0.9774 -0.2116 0.2116 0.9774 -124.2713 155.6161)" width="29.1" height="276.1"/>
<polygon points="288.5,424.5 305.1,448.1 518.5,361.1 502,337.4 "/>
<rect x="201.8" y="199.4" transform="matrix(0.7357 -0.6773 0.6773 0.7357 -171.369 235.6693)" width="29.1" height="276.1"/>
</svg>
