<?xml version="1.0" encoding="utf-8"?>
<!-- Generator: Adobe Illustrator 26.2.1, SVG Export Plug-In . SVG Version: 6.00 Build 0)  -->
<svg version="1.1" id="Warstwa_1" xmlns="http://www.w3.org/2000/svg" xmlns:xlink="http://www.w3.org/1999/xlink" x="0px" y="0px"
	 viewBox="0 0 1037 1280" style="enable-background:new 0 0 1037 1280;" xml:space="preserve">
<circle cx="507" cy="165.3" r="143.2"/>
<rect x="492" y="304.6" width="30" height="554.5"/>
<rect x="578.6" y="828" transform="matrix(0.9095 -0.4156 0.4156 0.9095 -378.4062 340.7562)" width="30" height="423.4"/>
<rect x="208.6" y="1024.6" transform="matrix(0.4156 -0.9095 0.9095 0.4156 -699.8942 989.812)" width="423.4" height="30"/>
<polygon points="494.6,323.5 522,332.6 402.9,529.8 375.5,520.8 "/>
<rect x="222.4" y="643.9" transform="matrix(0.2116 -0.9774 0.9774 0.2116 -359.3568 871.4836)" width="276.1" height="29.1"/>
<polygon points="523.5,337.4 507,361.1 720.4,448.1 737,424.5 "/>
<rect x="671.1" y="322.8" transform="matrix(0.6773 -0.7357 0.7357 0.6773 12.8748 704.1475)" width="276.1" height="29.1"/>
</svg>
