<?xml version="1.0" encoding="utf-8"?>
<!-- Generator: Adobe Illustrator 26.2.1, SVG Export Plug-In . SVG Version: 6.00 Build 0)  -->
<svg version="1.1" id="Warstwa_1" xmlns="http://www.w3.org/2000/svg" xmlns:xlink="http://www.w3.org/1999/xlink" x="0px" y="0px"
	 viewBox="0 0 1037 1280" style="enable-background:new 0 0 1037 1280;" xml:space="preserve">
<circle cx="518.5" cy="165.3" r="143.2"/>
<rect x="503.5" y="304.6" width="30" height="554.5"/>
<rect x="220.2" y="1024.7" transform="matrix(0.4156 -0.9095 0.9095 0.4156 -693.2322 1000.3629)" width="423.4" height="30"/>
<rect x="590.1" y="827.9" transform="matrix(0.9095 -0.4156 0.4156 0.9095 -377.3344 345.5214)" width="30" height="423.4"/>
<polygon points="299.5,264.9 294.7,293.4 507.4,382.1 512.4,353.6 "/>
<rect x="203.8" y="48.1" transform="matrix(0.7357 -0.6773 0.6773 0.7357 -68.3625 197.0871)" width="29.1" height="276.1"/>
<polygon points="507.6,353.6 512.6,382.1 725.3,293.4 720.5,264.9 "/>
<rect x="663.6" y="171.6" transform="matrix(0.6773 -0.7357 0.7357 0.6773 121.7371 649.8214)" width="276.1" height="29.1"/>
</svg>
