<?xml version="1.0" encoding="utf-8"?>
<!-- Generator: Adobe Illustrator 26.2.1, SVG Export Plug-In . SVG Version: 6.00 Build 0)  -->
<svg version="1.1" id="Warstwa_1" xmlns="http://www.w3.org/2000/svg" xmlns:xlink="http://www.w3.org/1999/xlink" x="0px" y="0px"
	 viewBox="0 0 1037 1280" style="enable-background:new 0 0 1037 1280;" xml:space="preserve">
<circle cx="509" cy="165.3" r="143.2"/>
<rect x="494" y="304.6" width="30" height="554.5"/>
<rect x="580.6" y="828" transform="matrix(0.9095 -0.4156 0.4156 0.9095 -378.2183 341.6095)" width="30" height="423.4"/>
<rect x="210.8" y="1024.6" transform="matrix(0.4156 -0.9095 0.9095 0.4156 -698.6741 991.7435)" width="423.4" height="30"/>
<polygon points="496.6,323.5 524,332.6 404.9,529.8 377.5,520.8 "/>
<rect x="224.5" y="643.9" transform="matrix(0.2116 -0.9774 0.9774 0.2116 -357.739 873.4824)" width="276.1" height="29.1"/>
<polygon points="515.1,353.6 520.1,382.1 732.8,293.4 728,264.9 "/>
<rect x="671.1" y="171.6" transform="matrix(0.6773 -0.7357 0.7357 0.6773 124.1719 655.3721)" width="276.1" height="29.1"/>
</svg>
