<?xml version="1.0" encoding="utf-8"?>
<!-- Generator: Adobe Illustrator 26.2.1, SVG Export Plug-In . SVG Version: 6.00 Build 0)  -->
<svg version="1.1" id="Warstwa_1" xmlns="http://www.w3.org/2000/svg" xmlns:xlink="http://www.w3.org/1999/xlink" x="0px" y="0px"
	 viewBox="0 0 1037 1280" style="enable-background:new 0 0 1037 1280;" xml:space="preserve">
<circle cx="505" cy="167.6" r="143.2"/>
<rect x="490" y="306.9" width="30" height="554.5"/>
<rect x="576.6" y="830.3" transform="matrix(0.9095 -0.4156 0.4156 0.9095 -379.5559 340.1404)" width="30" height="423.4"/>
<rect x="206.7" y="1026.9" transform="matrix(0.4156 -0.9095 0.9095 0.4156 -703.1412 989.4343)" width="423.4" height="30"/>
<polygon points="492.6,325.8 520,334.9 400.9,532.1 373.5,523.1 "/>
<rect x="220.4" y="646.3" transform="matrix(0.2116 -0.9774 0.9774 0.2116 -363.2216 871.3806)" width="276.1" height="29.1"/>
<polygon points="739,334.9 731.3,307.1 501.1,316.6 508.6,344.5 "/>
<rect x="708.1" y="292.4" transform="matrix(0.9921 -0.1251 0.1251 0.9921 -31.7581 108.2723)" width="276.1" height="29.1"/>
</svg>
