<?xml version="1.0" encoding="utf-8"?>
<!-- Generator: Adobe Illustrator 26.2.1, SVG Export Plug-In . SVG Version: 6.00 Build 0)  -->
<svg version="1.1" id="Warstwa_1" xmlns="http://www.w3.org/2000/svg" xmlns:xlink="http://www.w3.org/1999/xlink" x="0px" y="0px"
	 viewBox="0 0 1037 1280" style="enable-background:new 0 0 1037 1280;" xml:space="preserve">
<circle cx="505" cy="167.6" r="143.2"/>
<rect x="490" y="306.9" width="30" height="554.5"/>
<rect x="576.6" y="830.3" transform="matrix(0.9095 -0.4156 0.4156 0.9095 -379.5487 340.1201)" width="30" height="423.4"/>
<rect x="206.7" y="1026.9" transform="matrix(0.4156 -0.9095 0.9095 0.4156 -703.1824 989.3847)" width="423.4" height="30"/>
<polygon points="509.8,318.5 521.4,344.3 306.3,378.9 294.6,353.2 "/>
<rect x="387.4" y="303.1" transform="matrix(0.5533 -0.833 0.833 0.5533 -187.9151 531.9135)" width="29.1" height="276.1"/>
<polygon points="635.6,515.8 608.2,524.8 489.1,327.6 516.5,318.5 "/>
<rect x="636" y="515.4" transform="matrix(0.9774 -0.2116 0.2116 0.9774 -123.5225 152.4495)" width="29.1" height="276.1"/>
</svg>
