<?xml version="1.0" encoding="utf-8"?>
<!-- Generator: Adobe Illustrator 26.2.1, SVG Export Plug-In . SVG Version: 6.00 Build 0)  -->
<svg version="1.1" id="Warstwa_1" xmlns="http://www.w3.org/2000/svg" xmlns:xlink="http://www.w3.org/1999/xlink" x="0px" y="0px"
	 viewBox="0 0 1037 1280" style="enable-background:new 0 0 1037 1280;" xml:space="preserve">
<circle cx="505" cy="167.6" r="143.2"/>
<rect x="490" y="306.9" width="30" height="554.5"/>
<rect x="576.6" y="830.3" transform="matrix(0.9095 -0.4156 0.4156 0.9095 -379.5393 340.1252)" width="30" height="423.4"/>
<rect x="206.6" y="1026.9" transform="matrix(0.4156 -0.9095 0.9095 0.4156 -703.1956 989.3138)" width="423.4" height="30"/>
<polygon points="726.9,353.2 715.2,378.9 500.1,344.3 511.7,318.5 "/>
<rect x="481.5" y="426.6" transform="matrix(0.833 -0.5533 0.5533 0.833 -140.6076 416.4629)" width="276.1" height="29.1"/>
<polygon points="366.9,515.8 394.3,524.8 513.4,327.6 486,318.5 "/>
<rect x="337.5" y="515.3" transform="matrix(-0.9774 -0.2116 0.2116 -0.9774 557.8979 1366.303)" width="29.1" height="276.1"/>
</svg>
