<?xml version="1.0" encoding="utf-8"?>
<!-- Generator: Adobe Illustrator 26.2.1, SVG Export Plug-In . SVG Version: 6.00 Build 0)  -->
<svg version="1.1" id="Warstwa_1" xmlns="http://www.w3.org/2000/svg" xmlns:xlink="http://www.w3.org/1999/xlink" x="0px" y="0px"
	 viewBox="0 0 1037 1280" style="enable-background:new 0 0 1037 1280;" xml:space="preserve">
<circle cx="518.5" cy="165.3" r="143.2"/>
<rect x="503.5" y="304.6" width="30" height="554.5"/>
<rect x="416.9" y="828" transform="matrix(0.9095 0.4156 -0.4156 0.9095 471.1737 -85.4442)" width="30" height="423.4"/>
<rect x="590.1" y="828" transform="matrix(-0.9095 0.4156 -0.4156 -0.9095 1587.6245 1733.7644)" width="30" height="423.4"/>
<polygon points="650,520.8 622.6,529.8 503.5,332.6 530.9,323.5 "/>
<rect x="650.4" y="520.4" transform="matrix(0.9774 -0.2116 0.2116 0.9774 -124.2547 155.6119)" width="29.1" height="276.1"/>
<polygon points="387.2,528 414.6,537 533.8,339.8 506.4,330.7 "/>
<rect x="357.8" y="527.5" transform="matrix(-0.9774 -0.2116 0.2116 -0.9774 595.5835 1394.7629)" width="29.1" height="276.1"/>
</svg>
